<svg version="1" xmlns="http://www.w3.org/2000/svg" width="346.667" height="346.667" viewBox="0 0 260.000000 260.000000"><path d="M27 24.7c0 28.5-5.3 57.2-13.5 73.4-3.1 6.1-4 4.7 9.8 15.3l8.8 6.8 3.4-7.5c7.8-16.8 12.7-35.5 14.7-56.5L51.4 44h40.3l.6 10.7c1.2 21.1 6.2 42.7 12.2 52.8 2.9 5.1 11 12.5 13.6 12.5 1.1 0 4.1-3.2 7.9-8.5 5.9-8.4 6.9-10.5 5-10.5-1.5 0-5.5-6.8-7.3-12.5-3.9-11.9-7.2-35.2-8.3-58.8l-.6-13.7H27v8.7zM179.7 17.7c-.4.3-.7 4.1-.7 8.4 0 27.6-5.5 57-13.7 73.3-2.9 5.7-3.7 4.5 9.9 15 10.2 7.8 8.6 8.6 15.3-8.4l4.2-10.5 10.7-.1c10.7-.1 10.8-.1 11.7 2.5 3.7 9.8 11 19.6 17 22.7 2.7 1.4 2.8 1.4 9.3-7.8l6.5-9.1-3.3-3.9c-1.9-2.2-4.2-6.7-5.5-10.6-4.1-13.1-8.1-45.1-8.1-64.9V17h-26.3c-14.5 0-26.7.3-27 .7zm29.7 34c.4 3.8 1.1 10.7 1.6 15.4.6 4.7 1 9.1 1 9.7 0 .8-2.1 1.2-6.1 1.2h-6.1l.5-3.8c.2-2 1.1-9.4 1.8-16.5l1.3-12.7h2.7c2.6 0 2.8.2 3.3 6.7z"/><path d="M57.3 95.6c.3 10.2.7 18.7.9 19 .3.2 6.5.5 13.9.6l13.4.3.3-19.3L86 77H56.7l.6 18.6zM151.1 150.5c-5.4 6.4-6.8 8.5-5.4 8.5 1.1 0 4.2 1.2 7.1 2.6 7.2 3.6 16.4 13.9 24.1 27 3.6 6 6.6 11.1 6.8 11.3.2.3 3.9-3 8.2-7.3 8.8-8.7 8.7-8.5 4.1-17.6-8.2-16.2-26.2-33-35.3-33-1.7 0-4.3 2.3-9.6 8.5zM14.2 148.6c.3 1.1 2.2 7.3 4.3 14l3.8 12.1 17.6.7c22.5.8 33.1 2.8 33.1 6.2 0 3.4-17.1 6.4-40.7 7.1-10.1.3-18.3.9-18.3 1.2 0 .3 1.9 6.6 4.2 13.8l4.1 13.3h10l-.6 17.5L31 252h13.5c7.3 0 13.6-.4 14-.9.3-.5.8-9.3 1.2-19.5l.6-18.5 6.8-2.1c3.7-1.2 8.2-2 10-1.8 2.8.3 3.4.9 5.1 5.2 4.7 12 19.3 30.2 27.6 34.5 6.5 3.3 7.6 2.9 15.6-5.6l7.3-7.8-5.7-2.8c-7.6-3.6-14.1-10.8-20.8-23-6.8-12.3-7.9-15.8-6.4-20.1 1.6-4.5 1.5-14.2-.3-20.3-2-6.7-8-13.4-14.6-16.2-9.9-4.3-17.1-5.2-44.8-5.8-25.5-.5-26.4-.5-25.9 1.3zM228.5 158.7c-2.7 17.1-8 32.8-14.9 44.1-5.1 8.4-17.3 19.7-25.5 23.6-6 2.8-7.5 3.1-16.3 3.1-5.4 0-9.8.2-9.8.4 0 .1 3.3 4.9 7.3 10.6 6.8 9.7 7.4 10.3 11.3 10.8 10.3 1.5 24.1-3.2 34-11.5 17.5-14.6 31.9-41.5 34-63.3l.5-6-9.2-7.5c-5.1-4.1-9.6-7.6-10-7.8-.4-.2-1.1 1.4-1.4 3.5z"/></svg>